<svg width="1493" height="1938" viewBox="0 0 1493 1938" fill="none" xmlns="http://www.w3.org/2000/svg">
<path d="M387.849 1085.19L387.833 1085.17L387.818 1085.15C357.713 1045.64 343.412 1013.84 341.069 988.98C338.743 964.301 348.176 946.333 366.052 934.095C384.075 921.757 410.805 915.172 443.034 913.859C475.219 912.548 512.67 916.502 551.938 925.036C630.487 942.106 716.039 977.44 780.903 1025.22C845.833 1073.04 889.594 1132.98 885.65 1199.24C882.569 1251.01 888.726 1286.03 901.833 1308.58C915.036 1331.3 935.146 1341.12 959.156 1342.78C983.032 1344.44 1010.83 1338.04 1039.8 1328.38C1062.6 1320.78 1086.3 1311.1 1109.51 1301.61C1115.8 1299.05 1122.05 1296.49 1128.24 1294C1157.37 1282.26 1185.11 1271.84 1208.99 1267.21C1232.94 1262.56 1252.42 1263.86 1265.54 1274.81C1278.65 1285.75 1286.09 1306.88 1284.47 1343.63C1282.86 1380.31 1272.25 1432.04 1249.95 1503.47C1247.9 1510.02 1242.38 1519.29 1233.6 1530.43C1224.86 1541.53 1213.01 1554.33 1198.47 1567.95C1169.38 1595.18 1129.61 1625.57 1082.65 1651.93C988.687 1704.66 866.224 1741.08 742.99 1704.1C602.343 1661.9 548.616 1556.35 512.552 1436.52C503.534 1406.57 495.631 1375.75 487.746 1344.82L486.894 1341.48C479.296 1311.67 471.678 1281.78 463.072 1252.55C445.22 1191.92 423.072 1133.99 387.849 1085.19Z" stroke="#F8C5C5" stroke-width="4"/>
<path d="M757.001 1065.39L756.978 1065.38L756.955 1065.37C654.026 1011.83 605.54 925.585 592.473 830.798C579.395 735.923 601.813 632.469 640.834 544.861C679.878 457.201 735.376 385.775 788.1 354.699C814.44 339.174 839.817 333.867 862.052 341.229C884.269 348.585 903.908 368.777 918.371 405.495C963.251 519.432 1012.39 571.71 1062.6 596.729C1101.3 616.017 1140.57 618.995 1178.27 621.853C1189.29 622.689 1200.17 623.514 1210.86 624.733C1234.6 627.439 1257.52 632.067 1279.31 642.882C1301.08 653.685 1321.84 670.717 1341.16 698.384C1379.88 753.812 1412.82 851.871 1436.41 1027.74C1440.93 1061.45 1439.6 1158.48 1399.69 1252.93C1359.84 1347.27 1281.57 1438.93 1132.15 1462.53C1046.49 1476.06 996.06 1466.41 964.498 1442.81C932.913 1419.19 919.712 1381.24 909.46 1336.69C906.974 1325.89 904.666 1314.72 902.308 1303.3C885.282 1220.85 865.605 1125.56 757.001 1065.39Z" stroke="#F8C5C5" stroke-width="4"/>
</svg>
