<svg width="887" height="889" viewBox="0 0 887 889" fill="none" xmlns="http://www.w3.org/2000/svg">
<path fill-rule="evenodd" clip-rule="evenodd" d="M707.134 664.611C707.423 664.289 706.804 665.275 707.849 664.109C716.649 667.368 711.325 664.955 721.205 668.486C722.309 668.881 723.416 669.276 724.522 669.676C735.467 673.629 746.381 677.981 754.331 685.953C761.432 693.074 766.158 702.339 769.716 712.038C772.536 719.727 774.641 727.739 776.604 735.214C777.116 737.164 777.619 739.078 778.122 740.939C783.06 759.212 782.564 778.613 782.079 797.562C781.935 803.176 781.792 808.751 781.792 814.246C781.792 814.661 781.423 814.997 780.967 814.997C780.512 814.997 780.142 814.661 780.142 814.246C780.142 808.67 780.286 803.041 780.43 797.394C780.913 778.483 781.401 759.358 776.52 741.299C776.011 739.417 775.505 737.49 774.991 735.531C773.029 728.063 770.947 720.134 768.151 712.515C764.624 702.901 759.988 693.862 753.111 686.965C745.447 679.28 734.874 675.032 723.914 671.074C722.809 670.674 721.699 670.278 720.587 669.881C710.748 666.367 716.374 669.122 707.412 665.112C707.06 664.849 706.846 664.932 707.134 664.611Z" fill="white" stroke="#FDFBCB" stroke-width="14" stroke-linecap="round"/>
<path fill-rule="evenodd" clip-rule="evenodd" d="M707.159 665.023C707.415 665.345 707.345 664.142 708.271 665.311C719.407 663.392 717.632 665.791 726.803 662.534C727.828 662.17 728.854 661.805 729.881 661.436C740.042 657.787 750.185 653.744 757.708 646.078C764.427 639.23 769.024 630.222 772.563 620.762C775.368 613.263 777.524 605.43 779.535 598.123C780.06 596.216 780.575 594.345 781.089 592.526C786.134 574.665 786.221 555.576 786.305 536.933C786.33 531.409 786.355 525.924 786.508 520.521C786.52 520.113 786.19 519.774 785.772 519.764C785.354 519.754 785.005 520.077 784.993 520.485C784.838 525.968 784.812 531.506 784.787 537.062C784.701 555.669 784.615 574.485 779.628 592.137C779.109 593.976 778.59 595.861 778.063 597.776C776.053 605.077 773.919 612.828 771.14 620.259C767.632 629.636 763.123 638.424 756.615 645.056C749.363 652.447 739.537 656.394 729.363 660.048C728.336 660.417 727.306 660.782 726.275 661.149C717.487 663.643 718.036 662.14 707.344 664.144C707.013 664.395 706.903 664.701 707.159 665.023Z" fill="white" stroke="#FDFBCB" stroke-width="14" stroke-linecap="round"/>
<path fill-rule="evenodd" clip-rule="evenodd" d="M879.932 667.539C880.114 667.997 879.893 668.518 879.438 668.701C876.464 669.9 873.528 670.334 870.67 670.698C870.397 670.732 870.126 670.766 869.856 670.8C867.261 671.125 864.736 671.441 862.165 672.239C853.263 675 847.611 679.839 840.497 686.215C804.883 718.131 785.617 766.632 781.99 814.174C781.952 814.666 781.526 815.035 781.038 814.997C780.549 814.959 780.184 814.529 780.221 814.037C783.875 766.147 803.285 717.17 839.318 684.878C846.435 678.5 852.338 673.416 861.643 670.529C864.371 669.683 867.051 669.348 869.627 669.027C869.902 668.993 870.175 668.958 870.448 668.924C873.297 668.561 876.035 668.148 878.779 667.041C879.234 666.857 879.75 667.08 879.932 667.539Z" fill="white" stroke="#FDFBCB" stroke-width="14" stroke-linecap="round"/>
<path fill-rule="evenodd" clip-rule="evenodd" d="M879.798 668.054C879.993 667.601 879.787 667.077 879.337 666.883C876.396 665.616 873.969 666.539 871.119 666.109C870.848 666.068 870.577 666.028 870.308 665.988C867.721 665.602 865.203 665.227 862.653 664.37C853.825 661.405 848.308 656.444 841.37 649.914C806.643 617.231 788.742 568.389 786.461 520.873C786.437 520.381 786.021 520.004 785.531 520.03C785.042 520.056 784.664 520.476 784.688 520.968C786.985 568.831 805.017 618.151 840.153 651.22C847.093 657.751 852.855 662.963 862.083 666.063C864.789 666.972 867.46 667.369 870.028 667.751C870.302 667.792 870.575 667.833 870.847 667.874C873.688 668.302 875.916 667.354 878.631 668.524C879.081 668.717 879.603 668.507 879.798 668.054Z" fill="white" stroke="#FDFBCB" stroke-width="14" stroke-linecap="round"/>
<path fill-rule="evenodd" clip-rule="evenodd" d="M560.314 171.106C560.651 170.742 559.927 171.857 561.149 170.539C571.44 174.223 565.214 171.495 576.769 175.487C578.06 175.933 579.354 176.38 580.647 176.832C593.448 181.301 606.211 186.221 615.509 195.234C623.812 203.283 629.339 213.758 633.5 224.723C636.799 233.415 639.26 242.473 641.555 250.923C642.154 253.128 642.742 255.291 643.331 257.396C649.106 278.053 648.525 299.986 647.958 321.408C647.79 327.755 647.623 334.058 647.623 340.269C647.623 340.738 647.191 341.119 646.658 341.119C646.125 341.119 645.694 340.738 645.694 340.269C645.694 333.965 645.861 327.602 646.03 321.217C646.594 299.838 647.165 278.218 641.457 257.802C640.862 255.675 640.27 253.496 639.669 251.281C637.375 242.839 634.939 233.876 631.67 225.262C627.546 214.393 622.124 204.174 614.081 196.377C605.119 187.69 592.754 182.887 579.937 178.412C578.644 177.961 577.346 177.513 576.046 177.064C564.54 173.091 571.119 176.206 560.638 171.672C560.226 171.375 559.976 171.469 560.314 171.106Z" fill="white" stroke="#D5D4FE" stroke-opacity="0.66" stroke-width="14" stroke-linecap="round"/>
<path fill-rule="evenodd" clip-rule="evenodd" d="M560.186 171.387C560.486 171.752 560.404 170.391 561.49 171.714C574.541 169.542 572.46 172.257 583.209 168.57C584.41 168.158 585.614 167.746 586.817 167.328C598.726 163.198 610.613 158.623 619.43 149.947C627.305 142.198 632.693 132.003 636.84 121.298C640.128 112.811 642.655 103.946 645.012 95.6766C645.627 93.5188 646.231 91.4015 646.833 89.3421C652.747 69.1289 652.848 47.5262 652.946 26.4279C652.975 20.1761 653.004 13.9686 653.184 7.85463C653.198 7.39249 652.812 7.00878 652.321 6.99757C651.831 6.98637 651.423 7.3519 651.409 7.81405C651.227 14.0187 651.197 20.286 651.167 26.5746C651.067 47.6313 650.965 68.9261 645.121 88.9023C644.512 90.9839 643.904 93.1163 643.286 95.2839C640.931 103.546 638.43 112.318 635.172 120.728C631.061 131.34 625.777 141.285 618.149 148.791C609.65 157.155 598.134 161.622 586.209 165.757C585.006 166.175 583.799 166.588 582.59 167.003C572.291 169.825 572.934 168.125 560.404 170.393C560.016 170.677 559.886 171.023 560.186 171.387Z" fill="white" stroke="#D5D4FE" stroke-opacity="0.66" stroke-width="14" stroke-linecap="round"/>
<path fill-rule="evenodd" clip-rule="evenodd" d="M762.686 174.291C762.899 174.809 762.64 175.397 762.106 175.604C758.618 176.958 755.173 177.449 751.82 177.859C751.501 177.898 751.183 177.936 750.866 177.975C747.822 178.341 744.86 178.698 741.844 179.599C731.402 182.718 724.772 188.183 716.427 195.383C674.651 231.429 652.051 286.206 647.796 339.899C647.752 340.455 647.252 340.871 646.679 340.829C646.106 340.786 645.678 340.301 645.722 339.744C650.008 285.658 672.777 230.344 715.044 193.874C723.393 186.671 730.317 180.929 741.232 177.669C744.432 176.713 747.576 176.335 750.597 175.972C750.92 175.933 751.241 175.894 751.56 175.855C754.903 175.446 758.114 174.979 761.333 173.729C761.867 173.522 762.472 173.773 762.686 174.291Z" fill="white" stroke="#D5D4FE" stroke-opacity="0.66" stroke-width="14" stroke-linecap="round"/>
<path fill-rule="evenodd" clip-rule="evenodd" d="M762.518 174.821C762.746 174.308 762.504 173.715 761.977 173.495C758.53 172.062 755.686 173.106 752.346 172.62C752.028 172.573 751.711 172.528 751.395 172.482C748.363 172.046 745.412 171.621 742.424 170.652C732.077 167.296 725.61 161.681 717.48 154.292C676.779 117.304 655.799 62.0294 653.125 8.25641C653.098 7.69956 652.61 7.27221 652.036 7.30187C651.462 7.33153 651.019 7.80702 651.047 8.36386C653.74 62.5299 674.873 118.345 716.053 155.769C724.187 163.161 730.94 169.059 741.755 172.568C744.926 173.596 748.058 174.046 751.067 174.478C751.388 174.524 751.708 174.57 752.026 174.617C755.356 175.102 757.968 174.029 761.15 175.352C761.677 175.571 762.289 175.333 762.518 174.821Z" fill="white" stroke="#D5D4FE" stroke-opacity="0.66" stroke-width="14" stroke-linecap="round"/>
<path fill-rule="evenodd" clip-rule="evenodd" d="M330.11 227.39C330.372 227.299 330.655 227.443 330.742 227.711C344.682 270.943 358.588 312.816 382.726 351.251C384.098 353.436 385.469 355.629 386.843 357.827C407.401 390.708 428.593 424.603 461.775 445.07C490.955 463.068 527.842 468.017 562.231 472.631C566.921 473.26 571.565 473.883 576.136 474.532C576.409 474.571 576.599 474.83 576.559 475.111C576.519 475.392 576.265 475.588 575.992 475.549C571.432 474.902 566.794 474.28 562.105 473.651C527.742 469.044 490.627 464.067 461.255 445.951C427.866 425.356 406.555 391.267 386.028 358.431C384.644 356.217 383.264 354.01 381.883 351.812C357.668 313.253 343.729 271.261 329.792 228.04C329.705 227.772 329.847 227.48 330.11 227.39Z" fill="white" stroke="#EAB4B4" stroke-opacity="0.52" stroke-width="21" stroke-linecap="round"/>
<path fill-rule="evenodd" clip-rule="evenodd" d="M328.878 227.35C328.603 227.325 328.359 227.533 328.332 227.816C324.067 273.277 319.543 317.407 304.317 360.662C303.452 363.121 302.589 365.588 301.724 368.06C288.788 405.042 275.452 443.165 247.551 471.112C223.016 495.689 188.167 509.422 155.678 522.226C151.247 523.972 146.86 525.701 142.549 527.438C142.291 527.541 142.163 527.839 142.262 528.103C142.361 528.367 142.651 528.497 142.908 528.393C147.209 526.66 151.59 524.934 156.02 523.189C188.486 510.398 223.551 496.582 248.247 471.844C276.322 443.723 289.731 405.383 302.648 368.451C303.519 365.961 304.387 363.478 305.258 361.005C320.533 317.61 325.064 273.357 329.328 227.907C329.355 227.624 329.153 227.375 328.878 227.35Z" fill="white" stroke="#EAB4B4" stroke-opacity="0.52" stroke-width="21" stroke-linecap="round"/>
<path fill-rule="evenodd" clip-rule="evenodd" d="M577.353 474.988C577.497 475.24 577.4 475.55 577.136 475.682C563.143 482.653 548.456 488.547 533.798 494.43C525.054 497.939 516.321 501.443 507.752 505.17C484.779 515.161 462.89 526.779 444.773 544.433C431.572 557.296 421.726 576.448 414.512 596.738C407.301 617.019 402.737 638.39 400.073 655.647C399.692 658.116 399.308 660.589 398.923 663.066C391.835 708.684 384.536 755.655 393.606 800.41C393.663 800.69 393.469 800.956 393.173 801.004C392.877 801.053 392.591 800.865 392.534 800.586C383.428 755.654 390.753 708.523 397.835 662.951C398.223 660.457 398.609 657.967 398.993 655.482C401.663 638.185 406.239 616.752 413.476 596.397C420.71 576.051 430.619 556.733 443.981 543.712C462.234 525.926 484.263 514.245 507.28 504.235C515.914 500.481 524.673 496.966 533.426 493.454C548.047 487.587 562.649 481.727 576.612 474.772C576.877 474.64 577.208 474.737 577.353 474.988Z" fill="white" stroke="#EAB4B4" stroke-opacity="0.52" stroke-width="21" stroke-linecap="round"/>
<path fill-rule="evenodd" clip-rule="evenodd" d="M142.246 527.782C142.159 528.062 142.321 528.341 142.606 528.406C157.712 531.824 173.26 534.026 188.778 536.224C198.033 537.535 207.279 538.845 216.412 540.41C240.898 544.606 264.682 550.648 286.102 563.478C301.708 572.827 315.411 589.109 326.801 607.135C338.185 625.153 347.232 644.869 353.544 661.037C354.447 663.35 355.354 665.666 356.262 667.986C372.994 710.713 390.221 754.706 391.059 800.486C391.065 800.772 391.311 800.985 391.609 800.961C391.907 800.937 392.145 800.685 392.139 800.399C391.298 754.438 374.011 710.295 357.295 667.612C356.38 665.275 355.467 662.943 354.558 660.616C348.232 644.411 339.16 624.636 327.734 606.553C316.313 588.478 302.514 572.049 286.715 562.585C265.136 549.659 241.203 543.59 216.669 539.386C207.467 537.809 198.194 536.496 188.929 535.184C173.45 532.992 157.992 530.803 142.919 527.393C142.633 527.328 142.332 527.502 142.246 527.782Z" fill="white" stroke="#EAB4B4" stroke-opacity="0.52" stroke-width="21" stroke-linecap="round"/>
</svg>
